<?xml version="1.0" encoding="UTF-8" standalone="no"?>
<!-- Created with Inkscape (http://www.inkscape.org/) -->

<svg
   width="500"
   height="500"
   viewBox="0 0 132.29166 132.29167"
   version="1.1"
   id="svg5"
   sodipodi:docname="CQ_logo_wireframe.svg"
   inkscape:version="1.2.2 (732a01da63, 2022-12-09)"
   xmlns:inkscape="http://www.inkscape.org/namespaces/inkscape"
   xmlns:sodipodi="http://sodipodi.sourceforge.net/DTD/sodipodi-0.dtd"
   xmlns="http://www.w3.org/2000/svg"
   xmlns:svg="http://www.w3.org/2000/svg">
  <sodipodi:namedview
     id="namedview7"
     pagecolor="#ffffff"
     bordercolor="#000000"
     borderopacity="0.25"
     inkscape:showpageshadow="2"
     inkscape:pageopacity="0.0"
     inkscape:pagecheckerboard="0"
     inkscape:deskcolor="#d1d1d1"
     inkscape:document-units="mm"
     showgrid="false"
     inkscape:zoom="1.999"
     inkscape:cx="217.85893"
     inkscape:cy="134.06703"
     inkscape:window-width="2560"
     inkscape:window-height="1369"
     inkscape:window-x="3832"
     inkscape:window-y="-8"
     inkscape:window-maximized="1"
     inkscape:current-layer="svg5" />
  <defs
     id="defs2" />
  <path
     id="path507"
     style="fill:#ffffff;stroke:none;stroke-width:0.264583;fill-opacity:1"
     d="M 49.796406 1.5457015 L 26.492126 15.000282 L 26.492126 41.909897 L 49.796406 55.364478 L 73.100685 41.909897 L 73.100685 15.000282 L 49.796406 1.5457015 z M 47.465978 8.2729917 L 47.465978 13.654824 L 47.465978 21.885285 L 42.805122 21.885285 L 42.805122 16.34574 L 35.813838 20.382341 L 35.813838 36.527838 L 42.805122 40.564439 L 42.805122 35.024894 L 47.465978 35.024894 L 47.465978 43.255355 L 47.465978 48.637187 L 31.152982 39.218981 L 31.152982 17.691198 L 47.465978 8.2729917 z M 52.126834 8.2729917 L 68.439829 17.691198 L 68.439829 39.218981 L 64.413469 41.54372 L 65.634895 43.659311 L 61.598521 45.989739 L 60.376867 43.87392 L 52.126834 48.637187 L 52.126834 45.069402 L 52.126834 43.255355 L 52.126834 13.654824 L 52.126834 12.296394 L 52.126834 8.2729917 z M 56.787689 16.34574 L 56.787689 40.564439 L 63.778973 36.527838 L 63.778973 20.382341 L 56.787689 16.34574 z "
     transform="matrix(2.2706845,0,0,2.2706845,-46.926093,1.5333025)" />
</svg>
