<?xml version="1.0" encoding="UTF-8" standalone="no"?>
<svg
   viewBox="-40 -40 80 80"
   version="1.1"
   id="svg770"
   sodipodi:docname="GuildScriptOutline.svg"
   inkscape:version="1.2.2 (732a01da63, 2022-12-09)"
   xmlns:inkscape="http://www.inkscape.org/namespaces/inkscape"
   xmlns:sodipodi="http://sodipodi.sourceforge.net/DTD/sodipodi-0.dtd"
   xmlns="http://www.w3.org/2000/svg"
   xmlns:svg="http://www.w3.org/2000/svg">
  <defs
     id="defs774" />
  <sodipodi:namedview
     id="namedview772"
     pagecolor="#ffffff"
     bordercolor="#000000"
     borderopacity="0.25"
     inkscape:showpageshadow="2"
     inkscape:pageopacity="0.0"
     inkscape:pagecheckerboard="0"
     inkscape:deskcolor="#d1d1d1"
     showgrid="false"
     inkscape:zoom="5.18125"
     inkscape:cx="-22.098914"
     inkscape:cy="52.689988"
     inkscape:window-width="1920"
     inkscape:window-height="1009"
     inkscape:window-x="1912"
     inkscape:window-y="-8"
     inkscape:window-maximized="1"
     inkscape:current-layer="svg770" />
  <path
     id="circle762"
     style="fill:#ffffff;fill-opacity:1;stroke:#ffffff;stroke-opacity:1"
     d="M 39 0 A 39 39 0 0 1 0 39 A 39 39 0 0 1 -39 0 A 39 39 0 0 1 0 -39 A 39 39 0 0 1 39 0 z M 35.421875 0.43164062 A 31.767012 31.767012 0 0 0 26.136719 -23.115234 A 15.883506 15.883506 0 0 1 13.980469 3.9082031 A 15.883506 15.883506 0 0 0 18.789062 -21.810547 A 31.767325 31.767325 0 0 0 -27.546875 21.474609 A 15.883506 15.883506 0 0 0 -26.136719 23.115234 A 31.767325 31.767325 0 0 1 -27.546875 21.474609 A 15.883506 15.883506 0 0 1 -13.984375 -3.9101562 A 15.883506 15.883506 0 0 0 -18.789062 21.810547 A 31.767012 31.767012 0 0 0 35.421875 0.43164062 z "
     transform="matrix(0,-1,-1,0,0,0)" />
  <g
     id="g2271"
     style="fill:#d25d89;fill-opacity:0" />
</svg>
